<svg width="41" height="41" viewBox="0 0 41 41" fill="none" xmlns="http://www.w3.org/2000/svg">
<circle cx="20.2303" cy="20.2303" r="19.7303" stroke="white"/>
<g clip-path="url(#clip0_1_54)">
<path d="M27.329 23.492C26.228 23.492 25.147 23.3198 24.1226 22.9813C23.6119 22.8071 23.0304 22.9423 22.6972 23.2818L20.6753 24.8082C18.3304 23.5565 16.886 22.1125 15.6514 19.7852L17.1328 17.816C17.5177 17.4316 17.6558 16.8701 17.4904 16.3433C17.1504 15.3135 16.9777 14.233 16.9777 13.1316C16.9777 12.3359 16.3304 11.6886 15.5348 11.6886H12.2323C11.4368 11.6886 10.7894 12.3359 10.7894 13.1315C10.7894 22.2516 18.209 29.6711 27.329 29.6711C28.1246 29.6711 28.7719 29.0237 28.7719 28.2281V24.9349C28.7719 24.1393 28.1246 23.492 27.329 23.492ZM27.7729 28.2281C27.7729 28.473 27.5738 28.672 27.329 28.672C18.7597 28.672 11.7885 21.7008 11.7885 13.1316C11.7885 12.8867 11.9875 12.6877 12.2324 12.6877H15.5348C15.7797 12.6877 15.9787 12.8867 15.9787 13.1316C15.9787 14.3398 16.1685 15.5257 16.5397 16.6491C16.5914 16.815 16.5494 16.9867 16.3816 17.1614L14.6646 19.4354C14.5494 19.5881 14.5314 19.7925 14.6177 19.9627C16.0192 22.7174 17.7221 24.4203 20.4963 25.8418C20.665 25.93 20.8719 25.9116 21.0251 25.7959L23.3514 24.0335C23.4689 23.916 23.6451 23.874 23.8041 23.9281C24.9353 24.3018 26.1212 24.4911 27.329 24.4911C27.5738 24.4911 27.7729 24.6901 27.7729 24.935V28.2281Z" fill="white"/>
</g>
<defs>
<clipPath id="clip0_1_54">
<rect width="17.9825" height="17.9825" fill="white" transform="translate(10.7894 11.6886)"/>
</clipPath>
</defs>
</svg>
